<svg width="1280" height="720" xmlns="http://www.w3.org/2000/svg" xmlns:xlink="http://www.w3.org/1999/xlink" overflow="hidden"><defs><clipPath id="clip0"><rect x="0" y="0" width="1280" height="720"/></clipPath></defs><g clip-path="url(#clip0)"><rect x="0" y="0" width="1280" height="720" fill="#FFFFFF"/><path d="M165.606 381C142.134 381.058 123.058 362.078 123 338.606 122.942 315.134 141.922 296.058 165.395 296 188.867 295.942 207.942 314.922 208 338.394 208 338.43 208 338.465 208 338.5L186.75 338.5C186.75 326.764 177.236 317.25 165.5 317.25 153.764 317.25 144.25 326.764 144.25 338.5 144.25 350.236 153.764 359.75 165.5 359.75 165.518 359.75 165.535 359.75 165.553 359.75Z" fill="#1876FB" fill-rule="evenodd"/><path d="M207.894 339C231.643 338.942 250.942 357.924 251 381.396 251.058 404.868 231.854 423.942 208.106 424 184.357 424.058 165.058 405.076 165 381.604 165 381.57 165 381.535 165 381.5L186.25 381.5C186.25 393.236 195.988 402.75 208 402.75 220.012 402.75 229.75 393.236 229.75 381.5 229.75 369.764 220.012 360.25 208 360.25 207.982 360.25 207.965 360.25 207.947 360.25Z" fill="#1876FB" fill-rule="evenodd"/><rect x="165.5" y="339.5" width="43" height="42" stroke="#1876FB" stroke-width="1.33333" stroke-miterlimit="8" fill="#1876FB"/><text font-family="SF Pro Rounded,SF Pro Rounded_MSFontService,sans-serif" font-weight="700" font-size="117" transform="translate(296.81 401)">DeltaLaboratory</text></g></svg>